<?xml version="1.0" encoding="utf-8"?>
<!-- Generator: Adobe Illustrator 16.0.0, SVG Export Plug-In . SVG Version: 6.00 Build 0)  -->
<!DOCTYPE svg PUBLIC "-//W3C//DTD SVG 1.1//EN" "http://www.w3.org/Graphics/SVG/1.1/DTD/svg11.dtd">
<svg version="1.1" id="圖層_1" xmlns="http://www.w3.org/2000/svg" xmlns:xlink="http://www.w3.org/1999/xlink" x="0px" y="0px"
	 width="105.421px" height="171.44px" viewBox="0 0 105.421 171.44" enable-background="new 0 0 105.421 171.44"
	 xml:space="preserve">
<g>
	<g>
		<g>
			<g>
				<path fill="#FFFFFF" d="M105.421,85.92c0,7.44-6.06,13.5-13.5,13.5h-77c-7.44,0-13.5-6.06-13.5-13.5s6.06-13.5,13.5-13.5h77
					C99.362,72.42,105.421,78.48,105.421,85.92z"/>
			</g>
		</g>
	</g>
	<g>
		<g>
			<g>
				<path fill="#FFFFFF" d="M80.601,25.74l-61.41,28.53c-1.79,0.83-3.7,1.26-5.68,1.26c-5.24,0-10.05-3.07-12.25-7.82
					c-1.52-3.26-1.67-6.92-0.43-10.32c1.24-3.38,3.72-6.09,6.98-7.61l61.42-28.53c1.78-0.83,3.69-1.25,5.69-1.25
					c5.23,0,10.03,3.06,12.24,7.8C90.301,14.57,87.351,22.61,80.601,25.74z"/>
			</g>
		</g>
	</g>
	<g>
		<g>
			<g>
				<path fill="#FFFFFF" d="M87.171,163.62c-2.22,4.76-7.03,7.82-12.25,7.82c-1.97,0-3.88-0.42-5.67-1.25l-61.43-28.53
					c-3.27-1.52-5.75-4.23-6.99-7.61c-1.24-3.4-1.09-7.06,0.43-10.33c2.2-4.74,7.01-7.81,12.25-7.81c1.98,0,3.89,0.43,5.69,1.27
					l61.4,28.51C87.351,148.83,90.301,156.87,87.171,163.62z"/>
			</g>
		</g>
	</g>
</g>
</svg>
